<?xml version="1.0" encoding="utf-8"?><!-- Uploaded to: SVG Repo, www.svgrepo.com, Generator: SVG Repo Mixer Tools -->
<svg viewBox="0 0 24 24" fill="none" xmlns="http://www.w3.org/2000/svg">
<path d="M12 7C9.23858 7 7 9.23858 7 12C7 13.3613 7.54402 14.5955 8.42651 15.4972C8.77025 15.8484 9.05281 16.2663 9.14923 16.7482L9.67833 19.3924C9.86537 20.3272 10.6862 21 11.6395 21H12.3605C13.3138 21 14.1346 20.3272 14.3217 19.3924L14.8508 16.7482C14.9472 16.2663 15.2297 15.8484 15.5735 15.4972C16.456 14.5955 17 13.3613 17 12C17 9.23858 14.7614 7 12 7Z" stroke="black" stroke-width="2"/>
<path d="M12 4V3" stroke="black" stroke-width="2" stroke-linecap="round" stroke-linejoin="round"/>
<path d="M18 6L19 5" stroke="black" stroke-width="2" stroke-linecap="round" stroke-linejoin="round"/>
<path d="M20 12H21" stroke="black" stroke-width="2" stroke-linecap="round" stroke-linejoin="round"/>
<path d="M4 12H3" stroke="black" stroke-width="2" stroke-linecap="round" stroke-linejoin="round"/>
<path d="M5 5L6 6" stroke="black" stroke-width="2" stroke-linecap="round" stroke-linejoin="round"/>
<path d="M10 17H14" stroke="black" stroke-width="2" stroke-linecap="round" stroke-linejoin="round"/>
<path opacity="0.1" d="M7 12C7 9.23858 9.23858 7 12 7C14.7614 7 17 9.23858 17 12C17 13.3613 16.456 14.5955 15.5735 15.4972C15.2297 15.8484 14.9472 16.2663 14.8508 16.7482L14.8004 17H9.19961L9.14923 16.7482C9.05281 16.2663 8.77025 15.8484 8.42651 15.4972C7.54402 14.5955 7 13.3613 7 12Z" fill="black"/>
</svg>
